# xmcd
#
# Track frame offsets:
#	150
#	18250
#	32237
#	48547
#	66620
#	82315
#	94882
#	111027
#	127065
#	143002
#	162002
#	178267
#	204462
#
# Disc length: 2833 seconds
#
# Revision: 1
# Processed by: cddbd v1.5PL3 Copyright (c) Steve Scherf et al.
# Submitted via: audiograbber 1.82.01
#
DISCID=bf0b0f0d
DTITLE=John Denver - Windsong
DYEAR=1975
DGENRE=Country
TTITLE0=Windsong
TTITLE1=Cowboy's Delight
TTITLE2=Spirit
TTITLE3=Looking for Space
TTITLE4=Shipmates and Cheyenne
TTITLE5=Late Nite Radio
TTITLE6=Love Is Everywhere
TTITLE7=Two Shots
TTITLE8=I'm Sorry
TTITLE9=Fly Away
TTITLE10=Calypso
TTITLE11=Song of Wyoming
TTITLE12=Data Track
EXTD=
EXTT0=
EXTT1=
EXTT2=
EXTT3=
EXTT4=
EXTT5=
EXTT6=
EXTT7=
EXTT8=
EXTT9=
EXTT10=
EXTT11=
EXTT12=
PLAYORDER=
